<?xml version="1.0" encoding="UTF-8" standalone="no"?><!DOCTYPE svg PUBLIC "-//W3C//DTD SVG 1.1//EN" "http://www.w3.org/Graphics/SVG/1.1/DTD/svg11.dtd"><svg width="100%" height="100%" viewBox="0 0 1114 1107" version="1.1" xmlns="http://www.w3.org/2000/svg" xmlns:xlink="http://www.w3.org/1999/xlink" xml:space="preserve" xmlns:serif="http://www.serif.com/" style="fill-rule:evenodd;clip-rule:evenodd;stroke-linejoin:round;stroke-miterlimit:2;"><g><g><path d="M738.866,293.45c0,0 -110.847,-283.682 -335.741,-224.794c-315.625,115.677 -281.25,499.794 -281.25,499.794c0,0 -110.717,-438.608 279.886,-556.197c96.159,-20.281 148.612,14.864 196.978,45.331c123.113,77.552 140.127,235.866 140.127,235.866Z" style="fill:#745a2d;"/><path d="M500.193,327.315c25.253,-12.445 53.707,6.994 63.502,43.382c9.794,36.389 -2.756,76.036 -28.01,88.481c-25.253,12.445 -53.707,-6.993 -63.502,-43.382c-9.794,-36.389 2.756,-76.035 28.01,-88.481Zm9.519,35.368c11.707,-5.769 24.897,3.242 29.438,20.111c4.54,16.868 -1.278,35.247 -12.984,41.016c-11.707,5.77 -24.898,-3.242 -29.438,-20.11c-4.54,-16.869 1.278,-35.248 12.984,-41.017Z" style="fill:#745a2d;"/><path d="M478.697,356.211l-225.572,-206.511l46.875,-43.75l191.197,237.761l-12.5,12.5Z" style="fill:#745a2d;"/><path d="M510.757,332.002l-33.425,-298.95l64.086,-2.102l-13.023,299.864l-17.638,1.188Z" style="fill:#745a2d;"/><path d="M542.881,347.669l113.451,-188.594l37.579,26.563l-140.423,168.993l-10.607,-6.962Z" style="fill:#745a2d;"/><path d="M559.056,379.963l195.454,-43.381l4.108,26.308l-197.488,27.435l-2.074,-10.362Z" style="fill:#745a2d;"/><path d="M475.083,389.285l-358.371,-18.911l1.438,69.632l356.668,-31.521l0.265,-19.2Z" style="fill:#745a2d;"/></g><path d="M0,643.45l381.25,463.007c169.462,-275.898 345.41,-381.724 732.526,-497.382l-288.776,-118.75c-368.945,-48.364 -667.398,66.937 -825,153.125Z" style="fill:#745a2d;"/><path d="M278.125,502.825l0,-34.375l303.125,262.5l0,49.525l-303.125,-277.65Z" style="fill:url(#_Linear1);"/><path d="M581.25,730.95l284.664,-175c-32.888,24.751 -37.435,52.616 -6.539,84.375l-278.125,140.625l0,-50Z" style="fill:#f8ecd2;"/><path d="M278.125,468.45l245.313,-62.285l342.476,149.785l-284.664,175l-303.125,-262.5Z" style="fill:#fff;"/><path d="M581.25,705.95l243.75,-148.217l-303.125,-142.408l-215.625,56.645l275,233.98Z" style="fill:url(#_Linear2);"/></g><defs><linearGradient id="_Linear1" x1="0" y1="0" x2="1" y2="0" gradientUnits="userSpaceOnUse" gradientTransform="matrix(-303.125,-263.303,263.303,-303.125,581.25,755.487)"><stop offset="0" style="stop-color:#d2a65d;stop-opacity:1"/><stop offset="1" style="stop-color:#fff2dd;stop-opacity:1"/></linearGradient><linearGradient id="_Linear2" x1="0" y1="0" x2="1" y2="0" gradientUnits="userSpaceOnUse" gradientTransform="matrix(293.895,178.756,-178.756,293.895,429.688,445.707)"><stop offset="0" style="stop-color:#d2a65d;stop-opacity:1"/><stop offset="0.49" style="stop-color:#ddb778;stop-opacity:1"/><stop offset="1" style="stop-color:#fee9c6;stop-opacity:1"/></linearGradient></defs></svg>
